<?xml version="1.0" encoding="UTF-8" standalone="no"?>
<!-- Created with Inkscape (http://www.inkscape.org/) -->

<svg
   version="1.1"
   width="600"
   height="1204.1633"
   id="svg3570"
   sodipodi:docname="logo.svg"
   xml:space="preserve"
   inkscape:version="1.4.3 (0d15f75042, 2025-12-25)"
   xmlns:inkscape="http://www.inkscape.org/namespaces/inkscape"
   xmlns:sodipodi="http://sodipodi.sourceforge.net/DTD/sodipodi-0.dtd"
   xmlns="http://www.w3.org/2000/svg"
   xmlns:svg="http://www.w3.org/2000/svg"
   xmlns:rdf="http://www.w3.org/1999/02/22-rdf-syntax-ns#"
   xmlns:cc="http://creativecommons.org/ns#"
   xmlns:dc="http://purl.org/dc/elements/1.1/"><sodipodi:namedview
     id="namedview1"
     pagecolor="#ffffff"
     bordercolor="#000000"
     borderopacity="0.25"
     inkscape:showpageshadow="2"
     inkscape:pageopacity="0.0"
     inkscape:pagecheckerboard="0"
     inkscape:deskcolor="#d1d1d1"
     showgrid="false"
     inkscape:zoom="0.9575113"
     inkscape:cx="300.25755"
     inkscape:cy="602.08167"
     inkscape:window-width="3440"
     inkscape:window-height="1371"
     inkscape:window-x="0"
     inkscape:window-y="0"
     inkscape:window-maximized="1"
     inkscape:current-layer="svg3570" /><defs
     id="defs3572"><clipPath
       id="clipPath3783"><path
         d="M 0,300 147,300 147,0 0,0 0,300 z"
         inkscape:connector-curvature="0"
         id="path3785" /></clipPath></defs><metadata
     id="metadata3575"><rdf:RDF><cc:Work
         rdf:about=""><dc:format>image/svg+xml</dc:format><dc:type
           rdf:resource="http://purl.org/dc/dcmitype/StillImage" /></cc:Work></rdf:RDF></metadata><g
     transform="translate(-128.125,398.84217)"
     id="layer1"
     style="display:none"><g
       transform="matrix(4.0816327,0,0,-4.0816327,128.125,815.48356)"
       id="g3777"><g
         id="g3779"><g
           clip-path="url(#clipPath3783)"
           id="g3781"><g
             transform="translate(145.458,184.2598)"
             id="g3787" /></g></g></g></g><g
     style="display:none;fill:#e3e3e3"
     id="g2"
     transform="matrix(0.38269813,0,0,0.38269813,116.42059,861.81556)" /><path
     id="path3789"
     style="display:inline;fill:#ffffff;fill-opacity:1;fill-rule:nonzero;stroke:none"
     d="M -71.958001 113.25 C -71.958001 113.25 -76.478116 109.53578 -76.911116 91.026779 C -78.777116 12.821779 -83.784993 -12.780007 -83.784993 -12.780007 L -94.041975 -14.213161 C -94.041975 -14.213161 -98.423841 2.1350827 -99.668841 31.652083 C -100.91384 61.186083 -101.53795 83.977098 -104.94495 83.948098 C -108.38295 83.948098 -109.33088 59.73819 -110.60388 32.01719 C -111.81988 4.2971901 -114.93397 -18.834186 -114.93397 -18.834186 L -126.13793 -23.102067 C -126.13793 -23.102067 -130.51989 -4.9741671 -133.00989 11.010833 C -135.49889 27.032833 -136.12285 45.163928 -137.98885 45.163928 C -139.85685 45.163928 -142.67022 32.734188 -143.91622 0.00018849687 C -145.16122 -32.692812 -145.458 -39.08401 -145.458 -39.08401 C -145.458 -39.08401 -108.68097 -54.754203 -94.364973 -95.307203 C -80.021973 -135.8362 -76.396089 -171.02712 -76.288089 -174.93412 C -76.100089 -180.99812 -71.958001 -181.77019 -71.958001 -181.77019 C -71.958001 -181.77019 -68.357913 -180.99812 -67.627913 -174.93412 C -67.168913 -171.05512 -63.893943 -135.8362 -49.552943 -95.307203 C -35.234943 -54.754203 1.5419981 -39.08401 1.5419981 -39.08401 C 1.5419981 -39.08401 1.2432208 -32.692812 0.00022080625 0.00018849687 C -1.2447792 32.734188 -4.0611522 45.163928 -5.9271522 45.163928 C -7.8211522 45.163928 -8.4171072 27.032833 -10.906107 11.010833 C -13.396107 -4.9741671 -17.779984 -23.102067 -17.779984 -23.102067 L -28.983949 -18.834186 C -28.983949 -18.834186 -32.125066 4.2971901 -33.369066 32.01719 C -34.585066 59.73819 -35.532802 83.948098 -38.998802 83.948098 C -42.380802 83.977098 -43.029915 61.186083 -44.274915 31.652083 C -45.520915 2.1350827 -49.875941 -14.213161 -49.875941 -14.213161 L -60.158763 -12.780007 C -60.158763 -12.780007 -65.1388 12.821779 -67.0068 91.026779 C -67.4398 109.53578 -71.958001 113.25 -71.958001 113.25 z M -71.929769 -15.385046 C -66.741658 -15.385046 -61.866019 -16.369462 -57.302982 -18.338444 C -52.739944 -20.307426 -48.770518 -22.979619 -45.39512 -26.355016 C -42.019723 -29.730414 -39.34753 -33.69984 -37.378548 -38.262877 C -35.409566 -42.825915 -34.42515 -47.701553 -34.42515 -52.889664 C -34.42515 -58.265297 -35.47213 -63.296866 -37.566126 -67.984918 C -39.660123 -72.67297 -42.488724 -76.70496 -46.051644 -80.080357 L -51.302396 -74.829606 C -48.427057 -72.079282 -46.145407 -68.813215 -44.457708 -65.03152 C -42.77001 -61.249824 -41.926361 -57.202672 -41.926361 -52.889664 C -41.926361 -44.513678 -44.832688 -37.418953 -50.645872 -31.605768 C -56.459057 -25.792584 -63.553782 -22.885778 -71.929769 -22.885778 C -80.305755 -22.885778 -87.400002 -25.792584 -93.213186 -31.605768 C -99.026371 -37.418953 -101.93318 -44.513678 -101.93318 -52.889664 C -101.93318 -57.202672 -101.08953 -61.234184 -99.401829 -64.984625 C -97.71413 -68.735067 -95.401198 -71.985493 -92.463352 -74.735817 L -97.807893 -80.080357 C -101.37081 -76.642453 -104.19894 -72.594822 -106.29293 -67.938024 C -108.38693 -63.281225 -109.43391 -58.265297 -109.43391 -52.889664 C -109.43391 -47.701553 -108.44949 -42.825915 -106.48051 -38.262877 C -104.51153 -33.69984 -101.83934 -29.730414 -98.463938 -26.355016 C -95.088541 -22.979619 -91.119593 -20.307426 -86.556556 -18.338444 C -81.993518 -16.369462 -77.11788 -15.385046 -71.929769 -15.385046 z M -71.929769 -30.386989 C -65.679033 -30.386989 -60.365929 -32.574794 -55.990413 -36.950309 C -51.614898 -41.325824 -49.427093 -46.638928 -49.427093 -52.889664 C -49.427093 -56.202555 -50.08353 -59.296572 -51.396185 -62.17191 C -52.708839 -65.047249 -54.458701 -67.484829 -56.646458 -69.485065 L -61.990999 -64.141002 C -60.428315 -62.703333 -59.193645 -61.015557 -58.287288 -59.077828 C -57.380932 -57.1401 -56.927825 -55.077422 -56.927825 -52.889664 C -56.927825 -48.764179 -58.39663 -45.232218 -61.334476 -42.294372 C -64.272322 -39.356526 -67.804283 -37.887721 -71.929769 -37.887721 C -76.055254 -37.887721 -79.586737 -39.356526 -82.524583 -42.294372 C -85.462429 -45.232218 -86.931233 -48.764179 -86.931233 -52.889664 C -86.931233 -55.139929 -86.478127 -57.218248 -85.57177 -59.124723 C -84.665414 -61.031197 -83.431222 -62.703333 -81.868538 -64.141002 L -87.2126 -69.485065 C -89.400358 -67.422322 -91.150698 -64.969101 -92.463352 -62.125016 C -93.776007 -59.280931 -94.432444 -56.202555 -94.432444 -52.889664 C -94.432444 -46.638928 -92.244639 -41.325824 -87.869124 -36.950309 C -83.493609 -32.574794 -78.180505 -30.386989 -71.929769 -30.386989 z M -71.929769 -45.388454 C -69.867026 -45.388454 -68.101045 -46.123095 -66.632122 -47.592018 C -65.163199 -49.060941 -64.428558 -50.826922 -64.428558 -52.889664 C -64.428558 -54.327334 -64.772656 -55.608448 -65.460237 -56.73358 C -66.147818 -57.858713 -67.054031 -58.734122 -68.179163 -59.359196 L -68.179163 -90.393805 L -75.679896 -90.393805 L -75.679896 -59.359196 C -76.805028 -58.671615 -77.711719 -57.780565 -78.3993 -56.686686 C -79.086881 -55.592807 -79.430501 -54.327334 -79.430501 -52.889664 C -79.430501 -50.826922 -78.695859 -49.060941 -77.226937 -47.592018 C -75.758014 -46.123095 -73.992511 -45.388454 -71.929769 -45.388454 z "
     transform="matrix(4.0816327,0,0,-4.0816327,593.70613,462.24491)" /></svg>
